<svg width="71" height="62" viewBox="0 0 71 62" fill="none" xmlns="http://www.w3.org/2000/svg">
<path d="M39.0805 0.218946V62H15.6678V38.9434H23.4127V59.0623H31.3356V0.218946H39.0805ZM15.6678 26.2133H11.4838C10.1188 26.2133 8.8725 25.8275 7.74489 25.056V62H0V0.218946H23.4127V15.8868H11.4838C10.4749 15.8868 9.58467 16.2428 8.81315 16.955C8.10097 17.6672 7.74489 18.5277 7.74489 19.5367C7.74489 20.5456 8.10097 21.4358 8.81315 22.2073C9.58467 22.9195 10.4749 23.2756 11.4838 23.2756H23.4127V31.1095H15.6678V26.2133ZM7.74489 14.1063C8.8725 13.3348 10.1188 12.949 11.4838 12.949H15.6678V3.15666H7.74489V14.1063ZM70.6185 0.218946V15.8868H62.8737V3.15666H54.9507V15.8868H55.0397C55.0397 17.7265 55.4255 19.1806 56.197 20.2488C56.9685 21.2577 57.9181 22.1183 59.0457 22.8305C60.2327 23.4833 61.479 24.0471 62.7846 24.5219C64.1496 24.9373 65.3959 25.4418 66.5235 26.0352C67.7105 26.6287 68.6897 27.4002 69.4613 28.3498C70.2328 29.24 70.6185 30.4863 70.6185 32.0887V62H47.2058V38.9434H54.9507V59.0623H62.8737V32.0887C62.8737 30.2489 62.4582 28.8246 61.6274 27.8157C60.8558 26.7474 59.8766 25.8869 58.6896 25.234C57.562 24.5219 56.3157 23.9581 54.9507 23.5426C53.6451 23.0678 52.3988 22.5337 51.2118 21.9402C50.0842 21.3468 49.1346 20.6049 48.3631 19.7147C47.5916 18.7651 47.2058 17.4892 47.2058 15.8868V0.218946H70.6185Z" fill="white"/>
</svg>
